<svg width="15" height="24" viewBox="0 0 15 24" fill="none" xmlns="http://www.w3.org/2000/svg">
<path d="M11.9289 24C11.5252 24.0011 11.1253 23.9223 10.7523 23.7681C10.3793 23.6139 10.0407 23.3875 9.75594 23.1018L0.89744 14.2583C0.602391 13.9625 0.370773 13.6098 0.216703 13.2218C0.0626336 12.8337 -0.0106605 12.4184 0.00128809 12.0011C-0.0108091 11.5835 0.0624084 11.1678 0.216478 10.7793C0.370548 10.3909 0.602243 10.0378 0.89744 9.74168L9.7563 0.898216C10.0409 0.612524 10.3795 0.386033 10.7525 0.231855C11.1254 0.0776777 11.5253 -0.00112398 11.9289 1.21114e-05C12.7499 1.21114e-05 13.5213 0.319021 14.1015 0.898216C15.2995 2.09414 15.2995 4.04031 14.1015 5.23623L7.32595 12L14.1015 18.7634C15.2995 19.9593 15.2995 21.9055 14.1015 23.1014C13.8169 23.3872 13.4783 23.6137 13.1054 23.768C12.7324 23.9222 12.3326 24.0011 11.9289 24ZM11.9289 1.44349C11.7152 1.44293 11.5035 1.48464 11.3061 1.56621C11.1087 1.64779 10.9294 1.76761 10.7786 1.91875L2.09111 10.7622C1.76901 11.0845 1.78998 11.5143 1.78998 11.9729V12.0274C1.78998 12.4861 1.76901 12.9155 2.09111 13.2374L10.8643 22.0809C11.1716 22.3876 11.5374 22.5562 11.9716 22.5562C12.4064 22.5562 12.7932 22.3873 13.1005 22.0809C13.7349 21.4476 13.7241 20.4173 13.0897 19.784L5.7979 12.5103C5.66202 12.3753 5.58543 12.1919 5.58495 12.0005C5.58448 11.8091 5.66016 11.6254 5.79537 11.4897L13.0806 4.21605C13.3851 3.91112 13.5561 3.49808 13.5561 3.06751C13.556 2.63693 13.3849 2.22395 13.0803 1.91912C12.9294 1.76782 12.7499 1.64789 12.5523 1.56625C12.3546 1.48462 12.1428 1.44289 11.9289 1.44349Z" fill="#EFF3F4"/>
</svg>
